<svg x="0" y="0" version="1.1" xmlns="http://www.w3.org/2000/svg" xmlns:xlink="http://www.w3.org/1999/xlink" viewBox="0 0 48 48"><g fill="none" stroke="none" stroke-width="1" stroke-linecap="butt" stroke-linejoin="miter" stroke-miterlimit="10" stroke-dasharray="" stroke-dashoffset="0" font-family="sans-serif" font-weight="normal" font-size="12" text-anchor="start"><g><g><path d="M0,48l0,-48l48,0l0,48z" fill="none"></path><path d="M2.4,48c-1.32548,0 -2.4,-1.07452 -2.4,-2.4l0,-43.2c0,-1.32548 1.07452,-2.4 2.4,-2.4l43.2,0c1.32548,0 2.4,1.07452 2.4,2.4l0,43.2c0,1.32548 -1.07452,2.4 -2.4,2.4z" fill="#1abc9c"></path><g><path d="M24.639,4c-8.6,0 -18.43,4.954 -18.43,18.947c0,10.161 7.633,21.053 19.31,21.053c0.004,0 0.169,0 0.175,0c4.385,-0.079 9.105,-2.918 9.105,-8.959c0,-1.157 -0.431,-2.159 -0.809,-3.042c-0.102,-0.233 -0.199,-0.462 -0.288,-0.694c-0.864,-2.175 0.089,-2.971 2.329,-4.565c2.537,-1.806 6.013,-4.278 5.968,-10.819c0,-3.889 -4.243,-11.921 -17.36,-11.921z M25.199,39.2c-2.241,0 -4.001,-1.76 -4.001,-3.999c0,-2.241 1.76,-4.001 4.001,-4.001c2.238,0 3.998,1.76 3.998,4.001c0,2.239 -1.759,3.999 -3.998,3.999z" fill="#ffc107"></path><circle cx="34.5" cy="16.5" transform="scale(1,1)" r="3.5" fill="#9c27b0"></circle><circle cx="25.5" cy="10.5" transform="scale(1,1)" r="3.5" fill="#2196f3"></circle><circle cx="15.5" cy="15.5" transform="scale(1,1)" r="3.5" fill="#4caf50"></circle><circle cx="14.5" cy="26.5" transform="scale(1,1)" r="3.5" fill="#ff3d00"></circle></g><g><g><path d="M48,38c0,5.5 -4.5,10 -10,10c-5.5,0 -10,-4.5 -10,-10c0,-5.5 4.5,-10 10,-10c5.5,0 10,4.5 10,10" fill="#43a047"></path><path d="M42.5,33.4l-5.7,5.6l-2.7,-2.7l-2.1,2.2l4.8,4.8l7.8,-7.8z" fill="#dcedc8"></path></g><path d="M27.16571,38c0,-5.98361 4.85067,-10.83429 10.83429,-10.83429c5.98361,0 10.83429,4.85067 10.83429,10.83429c0,5.98361 -4.85067,10.83429 -10.83429,10.83429c-5.98361,0 -10.83429,-4.85067 -10.83429,-10.83429z" fill="#ff0000" opacity="0"></path></g></g></g></g></svg>